<mxfile host="app.diagrams.net" agent="Mozilla/5.0 (Windows NT 10.0; Win64; x64) AppleWebKit/537.36 (KHTML, like Gecko) Chrome/137.0.0.0 Safari/537.36" version="27.1.4">
  <diagram name="Page-1" id="JJfVG39N-vwB_4RZmVF4">
    <mxGraphModel dx="1665" dy="1912" grid="1" gridSize="10" guides="1" tooltips="1" connect="1" arrows="1" fold="1" page="1" pageScale="1" pageWidth="827" pageHeight="1169" math="0" shadow="0">
      <root>
        <mxCell id="0" />
        <mxCell id="1" parent="0" />
        <mxCell id="mYyL81BCmGoYTkyi5osU-1" value="&lt;div style=&quot;color: #f8f8f2;background-color: #272822;font-family: Consolas, Consolas, &#39;Courier New&#39;, monospace;font-weight: normal;font-size: 14px;line-height: 19px;white-space: pre;&quot;&gt;&lt;br&gt;&lt;br&gt;&lt;div&gt;&lt;span style=&quot;color: #66d9ef;font-style: italic;&quot;&gt;function&lt;/span&gt;&lt;span style=&quot;color: #f8f8f2;&quot;&gt; &lt;/span&gt;&lt;span style=&quot;color: #a6e22e;&quot;&gt;big&lt;/span&gt;&lt;span style=&quot;color: #f8f8f2;&quot;&gt;(){&lt;/span&gt;&lt;/div&gt;&lt;br&gt;&lt;div&gt;&lt;span style=&quot;color: #f8f8f2;&quot;&gt;&amp;nbsp; &amp;nbsp; &lt;/span&gt;&lt;span style=&quot;color: #88846f;&quot;&gt;// lexical scope&lt;/span&gt;&lt;/div&gt;&lt;br&gt;&lt;div&gt;&lt;span style=&quot;color: #f8f8f2;&quot;&gt;&amp;nbsp; &amp;nbsp; &lt;/span&gt;&lt;span style=&quot;color: #66d9ef;font-style: italic;&quot;&gt;let&lt;/span&gt;&lt;span style=&quot;color: #f8f8f2;&quot;&gt; &lt;/span&gt;&lt;span style=&quot;color: #f8f8f2;&quot;&gt;num&lt;/span&gt;&lt;span style=&quot;color: #f8f8f2;&quot;&gt; &lt;/span&gt;&lt;span style=&quot;color: #f92672;&quot;&gt;=&lt;/span&gt;&lt;span style=&quot;color: #f8f8f2;&quot;&gt; &lt;/span&gt;&lt;span style=&quot;color: #ae81ff;&quot;&gt;10&lt;/span&gt;&lt;span style=&quot;color: #f8f8f2;&quot;&gt;;&lt;/span&gt;&lt;/div&gt;&lt;br&gt;&lt;div&gt;&lt;span style=&quot;color: #f8f8f2;&quot;&gt;&amp;nbsp; &amp;nbsp; &lt;/span&gt;&lt;span style=&quot;color: #66d9ef;font-style: italic;&quot;&gt;function&lt;/span&gt;&lt;span style=&quot;color: #f8f8f2;&quot;&gt; &lt;/span&gt;&lt;span style=&quot;color: #a6e22e;&quot;&gt;small&lt;/span&gt;&lt;span style=&quot;color: #f8f8f2;&quot;&gt;(){&lt;/span&gt;&lt;/div&gt;&lt;div&gt;&lt;span style=&quot;color: #f8f8f2;&quot;&gt;&amp;nbsp; &amp;nbsp; &amp;nbsp; &amp;nbsp; &lt;/span&gt;&lt;span style=&quot;color: #f92672;&quot;&gt;return&lt;/span&gt;&lt;span style=&quot;color: #f8f8f2;&quot;&gt; &lt;/span&gt;&lt;span style=&quot;color: #f8f8f2;&quot;&gt;num&lt;/span&gt;&lt;span style=&quot;color: #f8f8f2;&quot;&gt;;&lt;/span&gt;&lt;/div&gt;&lt;div&gt;&lt;span style=&quot;color: #f8f8f2;&quot;&gt;&amp;nbsp; &amp;nbsp; }&lt;/span&gt;&lt;/div&gt;&lt;br&gt;&lt;div&gt;&lt;span style=&quot;color: #f8f8f2;&quot;&gt;&amp;nbsp;&lt;/span&gt;&lt;span style=&quot;color: #f92672;&quot;&gt;return&lt;/span&gt;&lt;span style=&quot;color: #f8f8f2;&quot;&gt; &lt;/span&gt;&lt;span style=&quot;color: #a6e22e;&quot;&gt;small&lt;/span&gt;&lt;span style=&quot;color: #f8f8f2;&quot;&gt;() &lt;/span&gt;&lt;span style=&quot;color: #88846f;&quot;&gt;// lexical scope&lt;/span&gt;&lt;/div&gt;&lt;div&gt;&lt;span style=&quot;color: #f8f8f2;&quot;&gt;}&lt;/span&gt;&lt;/div&gt;&lt;br&gt;&lt;/div&gt;" style="text;whiteSpace=wrap;html=1;" vertex="1" parent="1">
          <mxGeometry x="150" y="30" width="280" height="310" as="geometry" />
        </mxCell>
        <mxCell id="mYyL81BCmGoYTkyi5osU-3" value="let val = small()" style="text;html=1;align=center;verticalAlign=middle;resizable=0;points=[];autosize=1;strokeColor=none;fillColor=none;" vertex="1" parent="1">
          <mxGeometry x="65" y="530" width="100" height="30" as="geometry" />
        </mxCell>
        <mxCell id="mYyL81BCmGoYTkyi5osU-5" value="Big()" style="text;html=1;align=center;verticalAlign=middle;resizable=0;points=[];autosize=1;strokeColor=none;fillColor=none;" vertex="1" parent="1">
          <mxGeometry x="215" y="-12" width="50" height="30" as="geometry" />
        </mxCell>
        <mxCell id="mYyL81BCmGoYTkyi5osU-6" value="&lt;div style=&quot;color: #f8f8f2;background-color: #272822;font-family: Consolas, Consolas, &#39;Courier New&#39;, monospace;font-weight: normal;font-size: 14px;line-height: 19px;white-space: pre;&quot;&gt;&lt;br&gt;&lt;div&gt;&lt;span style=&quot;color: #f8f8f2;&quot;&gt;&amp;nbsp; &amp;nbsp; &lt;/span&gt;&lt;span style=&quot;color: #66d9ef;font-style: italic;&quot;&gt;function&lt;/span&gt;&lt;span style=&quot;color: #f8f8f2;&quot;&gt; &lt;/span&gt;&lt;span style=&quot;color: #a6e22e;&quot;&gt;small&lt;/span&gt;&lt;span style=&quot;color: #f8f8f2;&quot;&gt;(){&lt;/span&gt;&lt;/div&gt;&lt;div&gt;&lt;span style=&quot;color: #f8f8f2;&quot;&gt;&amp;nbsp; &amp;nbsp; &amp;nbsp; &amp;nbsp; &lt;/span&gt;&lt;span style=&quot;color: #f92672;&quot;&gt;return&lt;/span&gt;&lt;span style=&quot;color: #f8f8f2;&quot;&gt; &lt;/span&gt;&lt;span style=&quot;color: #f8f8f2;&quot;&gt;num&lt;/span&gt;&lt;span style=&quot;color: #f8f8f2;&quot;&gt;;&lt;/span&gt;&lt;/div&gt;&lt;div&gt;&lt;span style=&quot;color: #f8f8f2;&quot;&gt;&amp;nbsp; &amp;nbsp; }&lt;/span&gt;&lt;/div&gt;&lt;br&gt;&lt;/div&gt;" style="text;whiteSpace=wrap;html=1;" vertex="1" parent="1">
          <mxGeometry x="550" y="150" width="200" height="120" as="geometry" />
        </mxCell>
        <mxCell id="mYyL81BCmGoYTkyi5osU-7" value="small" style="text;html=1;align=center;verticalAlign=middle;resizable=0;points=[];autosize=1;strokeColor=none;fillColor=none;" vertex="1" parent="1">
          <mxGeometry x="545" y="118" width="50" height="30" as="geometry" />
        </mxCell>
        <mxCell id="mYyL81BCmGoYTkyi5osU-10" style="edgeStyle=orthogonalEdgeStyle;rounded=0;orthogonalLoop=1;jettySize=auto;html=1;entryX=1;entryY=0.733;entryDx=0;entryDy=0;entryPerimeter=0;" edge="1" parent="1" source="mYyL81BCmGoYTkyi5osU-6" target="mYyL81BCmGoYTkyi5osU-3">
          <mxGeometry relative="1" as="geometry">
            <Array as="points">
              <mxPoint x="650" y="390" />
              <mxPoint x="358" y="390" />
              <mxPoint x="358" y="552" />
            </Array>
          </mxGeometry>
        </mxCell>
        <mxCell id="mYyL81BCmGoYTkyi5osU-11" value="let val = Big()" style="text;html=1;align=center;verticalAlign=middle;resizable=0;points=[];autosize=1;strokeColor=none;fillColor=none;" vertex="1" parent="1">
          <mxGeometry x="70" y="460" width="90" height="30" as="geometry" />
        </mxCell>
        <mxCell id="mYyL81BCmGoYTkyi5osU-12" style="edgeStyle=orthogonalEdgeStyle;rounded=0;orthogonalLoop=1;jettySize=auto;html=1;entryX=0.889;entryY=0.133;entryDx=0;entryDy=0;entryPerimeter=0;" edge="1" parent="1" source="mYyL81BCmGoYTkyi5osU-1" target="mYyL81BCmGoYTkyi5osU-11">
          <mxGeometry relative="1" as="geometry" />
        </mxCell>
      </root>
    </mxGraphModel>
  </diagram>
</mxfile>
